<?xml version="1.0" standalone="no"?>
<!DOCTYPE svg PUBLIC "-//W3C//DTD SVG 20010904//EN"
 "http://www.w3.org/TR/2001/REC-SVG-20010904/DTD/svg10.dtd">
<svg version="1.0" xmlns="http://www.w3.org/2000/svg"
 width="296.000000pt" height="296.000000pt" viewBox="0 0 296.000000 296.000000"
 preserveAspectRatio="xMidYMid meet">
<metadata>
Created by potrace 1.14, written by Peter Selinger 2001-2017
</metadata>
<g transform="translate(0.000000,296.000000) scale(0.100000,-0.100000)"
fill="#000000" stroke="none">
<path d="M1338 2756 c-1 -2 -23 -6 -48 -9 -48 -7 -81 -13 -108 -21 -9 -3 -28
-7 -42 -10 -115 -20 -367 -148 -485 -246 -77 -63 -196 -194 -251 -275 -74
-110 -153 -272 -169 -345 -1 -8 -8 -35 -15 -60 -29 -108 -33 -142 -34 -305 -1
-130 4 -204 19 -265 3 -14 8 -36 11 -50 3 -14 8 -34 11 -45 4 -11 7 -22 8 -25
5 -26 20 -66 51 -135 9 -22 17 -42 17 -45 -1 -3 8 -17 18 -32 10 -14 19 -33
19 -41 0 -9 3 -17 8 -19 4 -1 26 -32 49 -68 59 -90 160 -203 238 -265 20 -16
42 -35 49 -41 31 -28 166 -110 239 -143 178 -83 352 -122 541 -124 83 0 223
10 236 18 3 2 23 6 44 9 83 13 274 79 287 99 3 5 10 8 15 8 16 -3 138 68 205
119 77 58 189 165 245 235 49 62 114 160 114 173 0 6 3 12 8 14 21 9 116 257
128 337 8 54 12 76 14 76 6 0 12 96 13 190 1 115 -9 218 -22 245 -5 8 -6 20
-4 27 4 10 -52 195 -66 218 -3 6 -6 12 -6 15 0 11 -70 146 -82 158 -7 7 -13
17 -13 22 0 11 -110 157 -147 195 -30 31 -110 105 -155 142 -102 85 -342 204
-458 228 -8 2 -46 11 -85 20 -61 15 -384 31 -397 21z"/>
</g>
</svg>
